<mxfile host="app.diagrams.net" modified="2024-04-15T21:00:56.330Z" agent="Mozilla/5.0 (Windows NT 10.0; Win64; x64) AppleWebKit/537.36 (KHTML, like Gecko) Chrome/123.0.0.0 Safari/537.36" version="24.0.5" etag="IfB-yIiZyFaGvF1TMveR" type="github">
  <diagram name="PÃ¡gina-1" id="ySIa61iPANZO2hQupOyh">
    <mxGraphModel>
      <root>
        <mxCell id="0" />
        <mxCell id="1" parent="0" />
      </root>
    </mxGraphModel>
  </diagram>
</mxfile>
